<svg id="Ebene_1" data-name="Ebene 1" xmlns="http://www.w3.org/2000/svg" viewBox="0 0 313.25 48"><defs><style>.cls-1{fill:#0776bf;}.cls-2{fill:#fff;}</style></defs><path d="M-2.71,6.05H1.8V23.76H12.58v3.88H-2.71Z" transform="translate(70 6)"/><path d="M20.7,17.93a6.47,6.47,0,0,0,1.66-.37,1.26,1.26,0,0,0,.91-1.18,1.41,1.41,0,0,0-.7-1.36,4.33,4.33,0,0,0-2-.37,2.68,2.68,0,0,0-2.13.73,3.1,3.1,0,0,0-.59,1.46h-4A6.11,6.11,0,0,1,15,13.4c1.11-1.4,3-2.11,5.71-2.11a10.26,10.26,0,0,1,4.68,1q2,1,2,3.93v7.32c0,.51,0,1.13,0,1.85a2.25,2.25,0,0,0,.25,1.11,1.52,1.52,0,0,0,.61.49v.61H23.76a5.06,5.06,0,0,1-.26-.91q-.08-.42-.12-1a8.87,8.87,0,0,1-2,1.59,6.07,6.07,0,0,1-3.07.78,5.27,5.27,0,0,1-3.6-1.24,4.38,4.38,0,0,1-1.42-3.51,4.54,4.54,0,0,1,2.29-4.26,10.2,10.2,0,0,1,3.69-1Zm2.55,1.95a5.06,5.06,0,0,1-.81.4,7.36,7.36,0,0,1-1.12.29l-.95.17a6.53,6.53,0,0,0-1.92.57,1.9,1.9,0,0,0-1,1.77,1.84,1.84,0,0,0,.61,1.55,2.27,2.27,0,0,0,1.46.48,4.42,4.42,0,0,0,2.52-.79,3.36,3.36,0,0,0,1.2-2.89Z" transform="translate(70 6)"/><path d="M43,12.59c1,.86,1.57,2.3,1.57,4.3V27.64H40.32V17.93A4.47,4.47,0,0,0,40,16a2.34,2.34,0,0,0-2.33-1.24,2.89,2.89,0,0,0-2.89,1.81A6.21,6.21,0,0,0,34.36,19v8.64H30.19V11.7h4V14a7.08,7.08,0,0,1,1.52-1.77,5.27,5.27,0,0,1,3.25-1A6.13,6.13,0,0,1,43,12.59Z" transform="translate(70 6)"/><path d="M55.48,11.66A5,5,0,0,1,57.94,14v-2.3H62V26.82a8.53,8.53,0,0,1-1,4.66c-1.19,1.8-3.47,2.69-6.85,2.69a9.37,9.37,0,0,1-5-1.2A4.43,4.43,0,0,1,47,29.38h4.54a2,2,0,0,0,.57,1.06,3.56,3.56,0,0,0,2.28.57,3,3,0,0,0,3-1.51,7.65,7.65,0,0,0,.5-3.25v-1a5,5,0,0,1-1.29,1.54,5.15,5.15,0,0,1-3.24.95,6.12,6.12,0,0,1-4.91-2.16A8.71,8.71,0,0,1,46.6,19.7a9.86,9.86,0,0,1,1.77-6,5.84,5.84,0,0,1,5-2.43A5.35,5.35,0,0,1,55.48,11.66ZM56.9,23.11a5.15,5.15,0,0,0,1-3.53,5.37,5.37,0,0,0-1-3.45,3.11,3.11,0,0,0-2.56-1.19,3,3,0,0,0-3,2.07,7.15,7.15,0,0,0-.44,2.71,6.22,6.22,0,0,0,.46,2.47,3,3,0,0,0,3,2A3.22,3.22,0,0,0,56.9,23.11Z" transform="translate(70 6)"/><path d="M84.93,11.73a4.7,4.7,0,0,1,1.86,1.44,4.59,4.59,0,0,1,.91,2.05,13.85,13.85,0,0,1,.15,2.36l0,10.06H83.54V17.47A3.41,3.41,0,0,0,83.25,16a2.1,2.1,0,0,0-2.06-1.11,2.4,2.4,0,0,0-2.38,1.43,4.43,4.43,0,0,0-.34,1.83v9.51h-4.2V18.13a5.22,5.22,0,0,0-.3-2.06,2,2,0,0,0-2.06-1.16,2.47,2.47,0,0,0-2.4,1.16,4.36,4.36,0,0,0-.34,2v9.61H64.94V11.7h4V14a6.7,6.7,0,0,1,1.47-1.77,5.78,5.78,0,0,1,6.11-.13,4.72,4.72,0,0,1,1.37,1.92A5.34,5.34,0,0,1,80,12a6.22,6.22,0,0,1,2.87-.66A5.62,5.62,0,0,1,84.93,11.73Z" transform="translate(70 6)"/><path d="M101.19,12A6.52,6.52,0,0,1,104,14.36a7.86,7.86,0,0,1,1.27,3.3,20.71,20.71,0,0,1,.14,3.17H93.73A3.83,3.83,0,0,0,95.4,24.2a4.24,4.24,0,0,0,2.3.6,3.6,3.6,0,0,0,2.32-.73,3.66,3.66,0,0,0,.86-1.1h4.26a5.16,5.16,0,0,1-1.55,2.88,7.73,7.73,0,0,1-6,2.33,8.69,8.69,0,0,1-5.62-2c-1.62-1.31-2.44-3.44-2.44-6.39a8.69,8.69,0,0,1,2.2-6.37,7.72,7.72,0,0,1,5.71-2.21A9.11,9.11,0,0,1,101.19,12Zm-6.25,3.6a4.36,4.36,0,0,0-1.11,2.48H101a3.47,3.47,0,0,0-1.11-2.53,3.67,3.67,0,0,0-2.48-.86A3.34,3.34,0,0,0,94.94,15.6Z" transform="translate(70 6)"/><path d="M110.86,9.77h-4.23V5.92h4.23Zm-4.23,1.9h4.23v16h-4.23Z" transform="translate(70 6)"/><path d="M124.41,12a6.52,6.52,0,0,1,2.76,2.36,7.86,7.86,0,0,1,1.27,3.3,20.71,20.71,0,0,1,.14,3.17H117a3.83,3.83,0,0,0,1.67,3.37,4.21,4.21,0,0,0,2.3.6,3.6,3.6,0,0,0,2.32-.73,3.66,3.66,0,0,0,.86-1.1h4.26a5.16,5.16,0,0,1-1.55,2.88,7.73,7.73,0,0,1-6,2.33,8.69,8.69,0,0,1-5.62-2c-1.62-1.31-2.44-3.44-2.44-6.39a8.69,8.69,0,0,1,2.2-6.37,7.72,7.72,0,0,1,5.71-2.21A9.11,9.11,0,0,1,124.41,12Zm-6.25,3.6a4.36,4.36,0,0,0-1.11,2.48h7.19a3.47,3.47,0,0,0-1.11-2.53,3.69,3.69,0,0,0-2.48-.86A3.34,3.34,0,0,0,118.16,15.6Z" transform="translate(70 6)"/><path d="M138.66,11.3l.36,0V15.6l-.71-.06h-.5c-1.68,0-2.8.54-3.38,1.64A6.4,6.4,0,0,0,134,20v7.63h-4.21v-16h4v2.79a8.64,8.64,0,0,1,1.68-2.19,4.61,4.61,0,0,1,3.05-1Z" transform="translate(70 6)"/><path d="M148.48,27.64V6h7.8a11.78,11.78,0,0,1,3.24.39,5.91,5.91,0,0,1,2.2,1.11A4.26,4.26,0,0,1,163,9.27a6,6,0,0,1,.39,2.2,5.79,5.79,0,0,1-.3,2,4.37,4.37,0,0,1-.78,1.38,3.65,3.65,0,0,1-1.1.87,4.54,4.54,0,0,1-1.27.43v.06A4.87,4.87,0,0,1,163.25,18a5.78,5.78,0,0,1,1.1,3.6,6.94,6.94,0,0,1-.53,2.85,4.84,4.84,0,0,1-1.45,1.89,5.86,5.86,0,0,1-2.24,1,12,12,0,0,1-2.83.31Zm2-12.06h5.16a11.21,11.21,0,0,0,2.67-.27,4.53,4.53,0,0,0,1.74-.79,2.92,2.92,0,0,0,.94-1.29,5,5,0,0,0,.29-1.76A4,4,0,0,0,161,9.75a2.61,2.61,0,0,0-1.05-1.14A5.38,5.38,0,0,0,158.06,8a17.27,17.27,0,0,0-2.83-.2h-4.71Zm0,10.32h5.19a24.72,24.72,0,0,0,2.92-.15,5.45,5.45,0,0,0,2.06-.61,2.92,2.92,0,0,0,1.21-1.32,5.36,5.36,0,0,0,.41-2.27,4.52,4.52,0,0,0-.45-2.17,3.12,3.12,0,0,0-1.29-1.28,6,6,0,0,0-2-.61,18.75,18.75,0,0,0-2.61-.17h-5.43Z" transform="translate(70 6)"/><path d="M174.46,18.58c.34,0,.74-.1,1.21-.18a4.63,4.63,0,0,0,1.16-.33.94.94,0,0,0,.55-.7,4.5,4.5,0,0,0,.11-.92,3.06,3.06,0,0,0-.89-2.26,4.11,4.11,0,0,0-3-.89,8.26,8.26,0,0,0-1.71.17,3.75,3.75,0,0,0-1.37.57,3.14,3.14,0,0,0-1,1.08,4.56,4.56,0,0,0-.49,1.69h-1.83a5.54,5.54,0,0,1,.63-2.35,4.76,4.76,0,0,1,1.39-1.59,5.79,5.79,0,0,1,2-.9,9.72,9.72,0,0,1,2.39-.29,9.15,9.15,0,0,1,2.2.26,5.11,5.11,0,0,1,1.8.81,3.75,3.75,0,0,1,1.2,1.48,5.36,5.36,0,0,1,.44,2.28V25c0,.7.12,1.15.37,1.34s.76.14,1.52-.14v1.41l-.62.18a2.76,2.76,0,0,1-.79.12,3.59,3.59,0,0,1-.81-.09,1.38,1.38,0,0,1-.72-.28,1.77,1.77,0,0,1-.44-.54,2.23,2.23,0,0,1-.22-.69,5.1,5.1,0,0,1-.06-.8,7.82,7.82,0,0,1-2.61,1.92,7.67,7.67,0,0,1-3.18.66,7.15,7.15,0,0,1-2-.27A4.73,4.73,0,0,1,168.1,27,4.15,4.15,0,0,1,167,25.56a4.31,4.31,0,0,1-.42-2q0-4,5.43-4.68Zm3,.9a8.83,8.83,0,0,1-2.31.63q-1.17.15-2.34.24a6.62,6.62,0,0,0-3.23.93,2.66,2.66,0,0,0-1.15,2.37,2.59,2.59,0,0,0,.28,1.25,2.63,2.63,0,0,0,.75.87,3.17,3.17,0,0,0,1.08.51,4.82,4.82,0,0,0,1.25.16,8.17,8.17,0,0,0,2.1-.27,5.64,5.64,0,0,0,1.81-.82A4.22,4.22,0,0,0,177,23.94a4.09,4.09,0,0,0,.48-2Z" transform="translate(70 6)"/><path d="M194.11,17a5.21,5.21,0,0,0-1.65-2.71,4.49,4.49,0,0,0-3-1,4.67,4.67,0,0,0-2.37.57,4.81,4.81,0,0,0-1.62,1.52,6.83,6.83,0,0,0-.93,2.13,9.64,9.64,0,0,0-.3,2.38,10.1,10.1,0,0,0,.28,2.4,6.42,6.42,0,0,0,.92,2.1,4.73,4.73,0,0,0,1.62,1.49,4.84,4.84,0,0,0,2.4.55,4.58,4.58,0,0,0,3.22-1.11,5.17,5.17,0,0,0,1.55-3.06h1.92a9.08,9.08,0,0,1-.77,2.36,6.21,6.21,0,0,1-1.35,1.83,5.77,5.77,0,0,1-2,1.18,8.41,8.41,0,0,1-5.82-.21,6,6,0,0,1-2.22-1.72,7.29,7.29,0,0,1-1.29-2.6,11.86,11.86,0,0,1-.42-3.21,10.29,10.29,0,0,1,.46-3.1,8.13,8.13,0,0,1,1.37-2.63,6.57,6.57,0,0,1,2.23-1.81,6.75,6.75,0,0,1,3.08-.68A6.91,6.91,0,0,1,193.85,13a6,6,0,0,1,2.09,4Z" transform="translate(70 6)"/><path d="M198.76,27.64V6h1.8V19.48l7.62-7.38h2.46l-5.82,5.61,6.51,9.93h-2L203.5,19l-2.94,2.79v5.88Z" transform="translate(70 6)"/><path d="M223.51,12.1h1.8V27.64h-1.8V25.48q-.36.42-.81.87a6.21,6.21,0,0,1-1,.83,5.9,5.9,0,0,1-1.36.63,5.8,5.8,0,0,1-1.8.25,6.85,6.85,0,0,1-2.61-.43,4.3,4.3,0,0,1-1.7-1.22,4.79,4.79,0,0,1-.93-1.81,8.56,8.56,0,0,1-.28-2.27V12.1h1.8V22.3a4.55,4.55,0,0,0,.93,3.08,3.87,3.87,0,0,0,3.06,1.06,4.44,4.44,0,0,0,2-.43,4.2,4.2,0,0,0,1.49-1.22,5.8,5.8,0,0,0,.93-1.86,8.08,8.08,0,0,0,.33-2.37Z" transform="translate(70 6)"/><path d="M230.77,33.76H229V12.1h1.8v2.73h.06a5.26,5.26,0,0,1,1-1.35,5.86,5.86,0,0,1,1.35-1,7.28,7.28,0,0,1,1.52-.6,5.87,5.87,0,0,1,1.53-.21,7.41,7.41,0,0,1,3.21.63A6,6,0,0,1,241.61,14a7,7,0,0,1,1.25,2.59,12.72,12.72,0,0,1,.39,3.21,11.52,11.52,0,0,1-.42,3.12,7.77,7.77,0,0,1-1.28,2.63,6.32,6.32,0,0,1-2.16,1.8,6.59,6.59,0,0,1-3.07.67,7.18,7.18,0,0,1-3.17-.73,5.57,5.57,0,0,1-2.38-2.18Zm0-13.83a8.61,8.61,0,0,0,.36,2.51,6.48,6.48,0,0,0,1,2.07,5.09,5.09,0,0,0,1.65,1.41,4.59,4.59,0,0,0,2.21.52,5,5,0,0,0,2.41-.55,4.78,4.78,0,0,0,1.7-1.52,6.53,6.53,0,0,0,1-2.23,10.18,10.18,0,0,0,.24-2.75,7.61,7.61,0,0,0-.41-2.59,5.54,5.54,0,0,0-1.12-1.91,4.79,4.79,0,0,0-1.68-1.18,5.35,5.35,0,0,0-2.1-.41,4.84,4.84,0,0,0-2.25.51,4.75,4.75,0,0,0-1.65,1.4,6.41,6.41,0,0,0-1,2.1A9.54,9.54,0,0,0,230.77,19.93Z" transform="translate(70 6)"/><path class="cls-1" d="M-60-6S-70-6-70,4V32s0,10,10,10h28s10,0,10-10V4S-22-6-32-6Z" transform="translate(70 6)"/><path class="cls-2" d="M-35.54,15.86a5.37,5.37,0,0,0,2.18-1.78,4.79,4.79,0,0,0,.74-2.73,5.87,5.87,0,0,0-.5-2.54,4.24,4.24,0,0,0-1.4-1.65,6,6,0,0,0-2.17-.89A13.37,13.37,0,0,0-39.49,6H-49.6V22.4h4.8V18h5.07a4,4,0,0,1,2.47.71,2.81,2.81,0,0,1,.93,2.38,3,3,0,0,1-.28,1.39,2.29,2.29,0,0,1-.77.86,3.24,3.24,0,0,1-1.11.45,6.38,6.38,0,0,1-1.33.14h-3.76V27.6h4.39a11,11,0,0,0,2.82-.36,7.89,7.89,0,0,0,2.44-1.12,5.62,5.62,0,0,0,1.7-1.95,6,6,0,0,0,.63-2.83,6.05,6.05,0,0,0-1-3.47,5.23,5.23,0,0,0-3-2Zm-1.66-3.69a2.31,2.31,0,0,1-.81,2,3.42,3.42,0,0,1-2.08.6H-44.8V9.69h4.35a6.92,6.92,0,0,1,1.22.11,3.06,3.06,0,0,1,1,.37,2.1,2.1,0,0,1,.72.76,2.53,2.53,0,0,1,.27,1.24Z" transform="translate(70 6)"/><polygon class="cls-1" points="19.2 31.2 19.2 34.8 26.4 34.8 26.4 31.2 19.2 31.2 19.2 31.2"/><path class="cls-2" d="M-49.6,27.6a4.8,4.8,0,0,0,4.8-4.8A4.8,4.8,0,0,0-49.6,18a4.8,4.8,0,0,0-4.8,4.8,4.8,4.8,0,0,0,4.8,4.8Z" transform="translate(70 6)"/><polygon class="cls-2" points="15.46 12 15.46 29.81 20.55 29.81 20.55 33.6 10.75 33.6 10.75 12 15.46 12 15.46 12"/><polygon class="cls-1" points="19.4 15.7 19.4 16.9 25.8 16.9 25.8 15.7 19.4 15.7 19.4 15.7"/><polygon class="cls-1" points="17.75 28.6 17.75 29.8 25.95 29.8 25.95 28.6 17.75 28.6 17.75 28.6"/><path class="cls-1" d="M-52,23.8a2.39,2.39,0,0,0,2.4-2.4A2.39,2.39,0,0,0-52,19a2.39,2.39,0,0,0-2.4,2.4A2.39,2.39,0,0,0-52,23.8Z" transform="translate(70 6)"/><polygon class="cls-1" points="16.6 23 16.6 29 20.4 29 20.4 23 16.6 23 16.6 23"/><polygon class="cls-1" points="15.55 27.8 15.55 29.8 18.55 29.8 18.55 27.8 15.55 27.8 15.55 27.8"/></svg>