<?xml version="1.0" encoding="utf-8"?>
<!-- Generator: Adobe Illustrator 26.0.0, SVG Export Plug-In . SVG Version: 6.00 Build 0)  -->
<svg version="1.1" id="Ebene_1" xmlns="http://www.w3.org/2000/svg" xmlns:xlink="http://www.w3.org/1999/xlink" x="0px" y="0px"
	 viewBox="0 0 313.2 48" style="enable-background:new 0 0 313.2 48;" xml:space="preserve">
<style type="text/css">
	.st0{fill:#FFFFFF;}
	.st1{fill:#0776BF;}
</style>
<path class="st0" d="M67.3,12.1h4.5v17.7h10.8v3.9H67.3V12.1z"/>
<path class="st0" d="M90.7,23.9c0.6,0,1.1-0.2,1.7-0.4c0.5-0.2,0.9-0.6,0.9-1.2c0.1-0.6-0.2-1.1-0.7-1.4c-0.6-0.3-1.3-0.4-2-0.4
	c-0.8-0.1-1.6,0.2-2.1,0.7c-0.3,0.4-0.5,0.9-0.6,1.5h-4c0-1.2,0.4-2.4,1.2-3.4c1.1-1.4,3-2.1,5.7-2.1c1.6,0,3.2,0.3,4.7,1
	c1.3,0.7,2,2,2,3.9v7.3c0,0.5,0,1.1,0,1.9c0,0.4,0.1,0.8,0.2,1.1c0.2,0.2,0.4,0.4,0.6,0.5v0.6h-4.5c-0.1-0.3-0.2-0.6-0.3-0.9
	c-0.1-0.3-0.1-0.6-0.1-1c-0.6,0.6-1.3,1.2-2,1.6c-0.9,0.5-2,0.8-3.1,0.8c-1.3,0-2.6-0.4-3.6-1.2c-1-0.9-1.5-2.2-1.4-3.5
	c-0.1-1.7,0.8-3.4,2.3-4.3c1.2-0.6,2.4-0.9,3.7-1L90.7,23.9z M93.2,25.9c-0.3,0.2-0.5,0.3-0.8,0.4c-0.4,0.1-0.7,0.2-1.1,0.3l-1,0.2
	c-0.7,0.1-1.3,0.3-1.9,0.6c-0.6,0.3-1,1-1,1.8c-0.1,0.6,0.2,1.2,0.6,1.5c0.4,0.3,0.9,0.5,1.5,0.5c0.9,0,1.8-0.3,2.5-0.8
	c0.9-0.7,1.3-1.8,1.2-2.9L93.2,25.9z"/>
<path class="st0" d="M113,18.6c1,0.9,1.6,2.3,1.6,4.3v10.8h-4.2v-9.7c0-0.7-0.1-1.3-0.3-1.9c-0.4-0.9-1.4-1.3-2.3-1.2
	c-1.3-0.1-2.4,0.6-2.9,1.8c-0.3,0.8-0.4,1.6-0.4,2.4v8.6h-4.2V17.7h4V20c0.4-0.7,0.9-1.3,1.5-1.8c0.9-0.7,2.1-1,3.2-1
	C110.4,17.2,111.9,17.7,113,18.6z"/>
<path class="st0" d="M125.5,17.7c1.1,0.5,1.9,1.3,2.5,2.3v-2.3h4.1v15.1c0.1,1.6-0.2,3.2-1,4.7c-1.2,1.8-3.5,2.7-6.8,2.7
	c-1.7,0.1-3.5-0.3-5-1.2c-1.3-0.8-2.1-2.1-2.2-3.6h4.5c0.1,0.4,0.3,0.8,0.6,1.1c0.7,0.4,1.5,0.6,2.3,0.6c1.2,0.2,2.4-0.4,3-1.5
	c0.4-1,0.6-2.1,0.5-3.2v-1c-0.3,0.6-0.8,1.1-1.3,1.5c-0.9,0.7-2.1,1-3.2,1c-1.9,0.1-3.7-0.7-4.9-2.2c-1.3-1.7-2-3.8-1.8-5.9
	c-0.1-2.1,0.5-4.2,1.8-6c1.1-1.6,3-2.5,5-2.4C124.1,17.3,124.8,17.4,125.5,17.7z M126.9,29.1c0.8-1,1.1-2.3,1-3.5
	c0.1-1.2-0.3-2.4-1-3.5c-0.6-0.8-1.6-1.2-2.6-1.2c-1.4-0.1-2.6,0.8-3,2.1c-0.3,0.9-0.5,1.8-0.4,2.7c0,0.8,0.1,1.7,0.5,2.5
	c0.4,1.3,1.7,2.1,3,2C125.3,30.2,126.3,29.8,126.9,29.1z"/>
<path class="st0" d="M154.9,17.7c0.7,0.3,1.4,0.8,1.9,1.4c0.5,0.6,0.8,1.3,0.9,2.1c0.1,0.8,0.2,1.6,0.1,2.4v10.1h-4.3V23.5
	c0-0.5-0.1-1-0.3-1.5c-0.4-0.8-1.2-1.2-2.1-1.1c-1-0.1-2,0.5-2.4,1.4c-0.2,0.6-0.4,1.2-0.3,1.8v9.5h-4.2v-9.5c0-0.7-0.1-1.4-0.3-2.1
	c-0.4-0.8-1.2-1.3-2.1-1.2c-1-0.1-1.9,0.3-2.4,1.2c-0.3,0.6-0.4,1.3-0.3,2v9.6h-4.2v-16h4V20c0.4-0.7,0.9-1.3,1.5-1.8
	c1.8-1.2,4.2-1.3,6.1-0.1c0.6,0.5,1.1,1.2,1.4,1.9c0.5-0.9,1.2-1.6,2.1-2c0.9-0.4,1.9-0.7,2.9-0.7C153.6,17.3,154.3,17.5,154.9,17.7
	z"/>
<path class="st0" d="M171.2,18c1.1,0.5,2.1,1.3,2.8,2.4c0.7,1,1.1,2.1,1.3,3.3c0.1,1.1,0.2,2.1,0.1,3.2h-11.7
	c-0.1,1.3,0.6,2.6,1.7,3.4c0.7,0.4,1.5,0.6,2.3,0.6c0.8,0,1.7-0.2,2.3-0.7c0.4-0.3,0.6-0.7,0.9-1.1h4.3c-0.2,1.1-0.7,2.1-1.6,2.9
	c-1.6,1.6-3.8,2.5-6,2.3c-2.1,0-4-0.7-5.6-2c-1.6-1.3-2.4-3.4-2.4-6.4c-0.2-2.3,0.6-4.6,2.2-6.4c1.5-1.5,3.6-2.3,5.7-2.2
	C168.7,17.2,170,17.5,171.2,18z M164.9,21.6c-0.6,0.7-1,1.6-1.1,2.5h7.2c0-1-0.4-1.9-1.1-2.5c-0.7-0.6-1.6-0.9-2.5-0.9
	C166.5,20.6,165.6,21,164.9,21.6z"/>
<path class="st0" d="M180.9,15.8h-4.2v-3.9h4.2V15.8z M176.6,17.7h4.2v16h-4.2V17.7z"/>
<path class="st0" d="M194.4,18c1.1,0.5,2.1,1.3,2.8,2.4c0.7,1,1.1,2.1,1.3,3.3c0.1,1.1,0.2,2.1,0.1,3.2H187
	c-0.1,1.3,0.6,2.6,1.7,3.4c0.7,0.4,1.5,0.6,2.3,0.6c0.8,0,1.7-0.2,2.3-0.7c0.4-0.3,0.6-0.7,0.9-1.1h4.3c-0.2,1.1-0.7,2.1-1.6,2.9
	c-1.6,1.6-3.8,2.5-6,2.3c-2.1,0-4-0.7-5.6-2c-1.6-1.3-2.4-3.4-2.4-6.4c-0.2-2.3,0.6-4.6,2.2-6.4c1.5-1.5,3.6-2.3,5.7-2.2
	C192,17.2,193.2,17.5,194.4,18z M188.2,21.6c-0.6,0.7-1,1.6-1.1,2.5h7.2c0-1-0.4-1.9-1.1-2.5c-0.7-0.6-1.6-0.9-2.5-0.9
	C189.7,20.6,188.8,21,188.2,21.6z"/>
<path class="st0" d="M208.7,17.3h0.4v4.3l-0.7-0.1h-0.5c-1.7,0-2.8,0.5-3.4,1.6c-0.4,0.9-0.5,1.9-0.4,2.8v7.6h-4.2v-16h4v2.8
	c0.4-0.8,1-1.6,1.7-2.2c0.9-0.7,1.9-1,3.1-1L208.7,17.3z"/>
<path class="st0" d="M218.5,33.6V12h7.8c1.1,0,2.2,0.1,3.2,0.4c0.8,0.2,1.6,0.6,2.2,1.1c0.6,0.5,1,1.1,1.3,1.8
	c0.3,0.7,0.4,1.4,0.4,2.2c0,0.7-0.1,1.4-0.3,2c-0.2,0.5-0.4,1-0.8,1.4c-0.3,0.4-0.7,0.7-1.1,0.9c-0.4,0.2-0.8,0.4-1.3,0.4v0.1
	c1.3,0.1,2.5,0.8,3.3,1.8c0.8,1,1.1,2.3,1.1,3.6c0,1-0.2,1.9-0.5,2.9c-0.3,0.7-0.8,1.4-1.4,1.9c-0.7,0.5-1.4,0.8-2.2,1
	c-0.9,0.2-1.9,0.3-2.8,0.3L218.5,33.6z M220.5,21.6h5.2c0.9,0,1.8-0.1,2.7-0.3c0.6-0.1,1.2-0.4,1.7-0.8c0.4-0.3,0.8-0.8,0.9-1.3
	c0.2-0.6,0.3-1.2,0.3-1.8c0-0.6-0.1-1.2-0.3-1.7c-0.2-0.5-0.6-0.9-1.1-1.1c-0.6-0.3-1.2-0.5-1.9-0.6c-0.9-0.1-1.9-0.2-2.8-0.2h-4.7
	L220.5,21.6z M220.5,31.9h5.2c1,0,2,0,2.9-0.1c0.7-0.1,1.4-0.3,2.1-0.6c0.5-0.3,1-0.8,1.2-1.3c0.3-0.7,0.4-1.5,0.4-2.3
	c0-0.7-0.1-1.5-0.4-2.2c-0.3-0.5-0.7-1-1.3-1.3c-0.6-0.3-1.3-0.5-2-0.6c-0.9-0.1-1.7-0.2-2.6-0.2h-5.4L220.5,31.9z"/>
<path class="st0" d="M244.5,24.6c0.3,0,0.7-0.1,1.2-0.2c0.4-0.1,0.8-0.2,1.2-0.3c0.3-0.1,0.5-0.4,0.6-0.7c0.1-0.3,0.1-0.6,0.1-0.9
	c0-0.8-0.3-1.7-0.9-2.3c-0.8-0.7-1.9-1-3-0.9c-0.6,0-1.1,0.1-1.7,0.2c-0.5,0.1-1,0.3-1.4,0.6c-0.4,0.3-0.8,0.6-1,1.1
	c-0.3,0.5-0.4,1.1-0.5,1.7h-1.8c0-0.8,0.2-1.6,0.6-2.4c0.3-0.6,0.8-1.2,1.4-1.6c0.6-0.4,1.3-0.7,2-0.9c0.8-0.2,1.6-0.3,2.4-0.3
	c0.7,0,1.5,0.1,2.2,0.3c0.6,0.2,1.3,0.4,1.8,0.8c0.5,0.4,0.9,0.9,1.2,1.5c0.3,0.7,0.5,1.5,0.4,2.3V31c0,0.7,0.1,1.2,0.4,1.3
	s0.8,0.1,1.5-0.1v1.4l-0.6,0.2c-0.3,0.1-0.5,0.1-0.8,0.1c-0.3,0-0.5,0-0.8-0.1c-0.3,0-0.5-0.1-0.7-0.3c-0.2-0.1-0.3-0.3-0.4-0.5
	c-0.1-0.2-0.2-0.4-0.2-0.7c0-0.3-0.1-0.5-0.1-0.8c-0.7,0.8-1.6,1.5-2.6,1.9c-1,0.4-2.1,0.7-3.2,0.7c-0.7,0-1.3-0.1-2-0.3
	c-0.6-0.2-1.1-0.4-1.6-0.8c-0.5-0.4-0.8-0.9-1.1-1.4c-0.3-0.6-0.4-1.3-0.4-2c0-2.7,1.8-4.2,5.4-4.7L244.5,24.6z M247.5,25.5
	c-0.7,0.3-1.5,0.5-2.3,0.6c-0.8,0.1-1.6,0.2-2.3,0.2c-1.1,0-2.3,0.3-3.2,0.9c-0.8,0.5-1.2,1.4-1.1,2.4c0,0.4,0.1,0.9,0.3,1.2
	c0.2,0.3,0.4,0.6,0.8,0.9c0.3,0.2,0.7,0.4,1.1,0.5c0.4,0.1,0.8,0.2,1.2,0.2c0.7,0,1.4-0.1,2.1-0.3c0.6-0.2,1.3-0.4,1.8-0.8
	c0.5-0.4,1-0.8,1.3-1.4c0.3-0.6,0.5-1.3,0.5-2L247.5,25.5z"/>
<path class="st0" d="M264.1,23c-0.3-1.1-0.8-2-1.6-2.7c-0.8-0.7-1.9-1-3-1c-0.8,0-1.6,0.2-2.4,0.6c-0.7,0.4-1.2,0.9-1.6,1.5
	c-0.4,0.7-0.7,1.4-0.9,2.1c-0.2,0.8-0.3,1.6-0.3,2.4c0,0.8,0.1,1.6,0.3,2.4c0.2,0.7,0.5,1.5,0.9,2.1c0.4,0.6,1,1.1,1.6,1.5
	c0.7,0.4,1.6,0.6,2.4,0.6c1.2,0.1,2.3-0.3,3.2-1.1c0.8-0.8,1.4-1.9,1.6-3.1h1.9c-0.1,0.8-0.4,1.6-0.8,2.4c-0.3,0.7-0.8,1.3-1.4,1.8
	c-0.6,0.5-1.3,0.9-2,1.2c-1.9,0.6-4,0.6-5.8-0.2c-0.9-0.4-1.6-1-2.2-1.7c-0.6-0.8-1-1.7-1.3-2.6c-0.3-1-0.4-2.1-0.4-3.2
	c0-1.1,0.1-2.1,0.5-3.1c0.3-1,0.8-1.8,1.4-2.6c0.6-0.8,1.4-1.4,2.2-1.8c1-0.5,2-0.7,3.1-0.7c1.6-0.1,3.1,0.4,4.4,1.3
	c1.2,1,1.9,2.4,2.1,4H264.1z"/>
<path class="st0" d="M268.8,33.6V12h1.8v13.5l7.6-7.4h2.5l-5.8,5.6l6.5,9.9h-2l-5.8-8.6l-2.9,2.8v5.9L268.8,33.6z"/>
<path class="st0" d="M293.5,18.1h1.8v15.5h-1.8v-2.2c-0.2,0.3-0.5,0.6-0.8,0.9c-0.3,0.3-0.6,0.6-1,0.8c-0.4,0.3-0.9,0.5-1.4,0.6
	c-0.6,0.2-1.2,0.3-1.8,0.2c-0.9,0-1.8-0.1-2.6-0.4c-0.7-0.3-1.2-0.7-1.7-1.2c-0.4-0.5-0.8-1.1-0.9-1.8c-0.2-0.7-0.3-1.5-0.3-2.3
	V18.1h1.8v10.2c-0.1,1.1,0.3,2.2,0.9,3.1c0.8,0.8,1.9,1.2,3.1,1.1c0.7,0,1.4-0.1,2-0.4c0.6-0.3,1.1-0.7,1.5-1.2
	c0.4-0.6,0.7-1.2,0.9-1.9c0.2-0.8,0.3-1.6,0.3-2.4L293.5,18.1z"/>
<path class="st0" d="M300.8,39.8H299V18.1h1.8v2.7h0.1c0.3-0.5,0.6-1,1-1.4c0.4-0.4,0.9-0.7,1.4-1c0.5-0.3,1-0.5,1.5-0.6
	c0.5-0.1,1-0.2,1.5-0.2c1.1,0,2.2,0.2,3.2,0.6c0.8,0.4,1.6,1,2.1,1.7c0.6,0.8,1,1.6,1.2,2.6c0.3,1,0.4,2.1,0.4,3.2
	c0,1.1-0.1,2.1-0.4,3.1c-0.3,0.9-0.7,1.8-1.3,2.6c-0.6,0.8-1.3,1.4-2.2,1.8c-1,0.5-2,0.7-3.1,0.7c-1.1,0-2.2-0.2-3.2-0.7
	c-1-0.5-1.8-1.2-2.4-2.2L300.8,39.8z M300.8,25.9c0,0.8,0.1,1.7,0.4,2.5c0.2,0.7,0.5,1.4,1,2.1c0.4,0.6,1,1.1,1.6,1.4
	c0.7,0.4,1.4,0.5,2.2,0.5c0.8,0,1.7-0.2,2.4-0.5c0.7-0.4,1.3-0.9,1.7-1.5c0.5-0.7,0.8-1.4,1-2.2c0.2-0.9,0.3-1.8,0.2-2.8
	c0-0.9-0.1-1.8-0.4-2.6c-0.2-0.7-0.6-1.4-1.1-1.9c-0.5-0.5-1-0.9-1.7-1.2c-0.7-0.3-1.4-0.4-2.1-0.4c-0.8,0-1.6,0.2-2.2,0.5
	c-0.7,0.3-1.2,0.8-1.7,1.4c-0.5,0.6-0.8,1.3-1,2.1C300.9,24.2,300.8,25,300.8,25.9z"/>
<path class="st1" d="M10,0C10,0,0,0,0,10v28c0,0,0,10,10,10h28c0,0,10,0,10-10V10c0,0,0-10-10-10H10z"/>
<path class="st0" d="M34.5,21.9c0.9-0.4,1.6-1,2.2-1.8c0.5-0.8,0.8-1.8,0.7-2.7c0-0.9-0.1-1.7-0.5-2.5c-0.3-0.7-0.8-1.2-1.4-1.7
	c-0.7-0.4-1.4-0.7-2.2-0.9c-0.9-0.2-1.9-0.3-2.8-0.3H20.4v16.4h4.8V24h5.1c0.9,0,1.7,0.2,2.5,0.7c0.7,0.6,1,1.5,0.9,2.4
	c0,0.5-0.1,1-0.3,1.4c-0.2,0.3-0.4,0.6-0.8,0.9c-0.3,0.2-0.7,0.4-1.1,0.5c-0.4,0.1-0.9,0.1-1.3,0.1h-3.8v3.7h4.4
	c1,0,1.9-0.1,2.8-0.4c0.9-0.2,1.7-0.6,2.4-1.1c0.7-0.5,1.3-1.2,1.7-2c0.4-0.9,0.7-1.8,0.6-2.8c0-1.2-0.3-2.4-1-3.5
	C36.7,22.9,35.6,22.2,34.5,21.9L34.5,21.9z M32.8,18.2c0.1,0.8-0.2,1.5-0.8,2c-0.6,0.4-1.3,0.6-2.1,0.6h-4.7v-5.1h4.3
	c0.4,0,0.8,0,1.2,0.1c0.4,0.1,0.7,0.2,1,0.4c0.3,0.2,0.5,0.4,0.7,0.8C32.7,17.3,32.8,17.7,32.8,18.2L32.8,18.2z"/>
<polygon class="st1" points="19.2,31.2 19.2,34.8 26.4,34.8 26.4,31.2 19.2,31.2 "/>
<path class="st0" d="M20.4,33.6c2.7,0,4.8-2.1,4.8-4.8l0,0c0-2.7-2.1-4.8-4.8-4.8s-4.8,2.1-4.8,4.8S17.7,33.6,20.4,33.6z"/>
<polygon class="st0" points="15.5,12 15.5,29.8 20.5,29.8 20.5,33.6 10.8,33.6 10.8,12 15.5,12 "/>
<polygon class="st1" points="19.4,15.7 19.4,16.9 25.8,16.9 25.8,15.7 19.4,15.7 "/>
<polygon class="st1" points="17.8,28.6 17.8,29.8 26,29.8 26,28.6 17.8,28.6 "/>
<path class="st1" d="M18,29.8c1.3,0,2.4-1.1,2.4-2.4c0,0,0,0,0,0c0-1.3-1.1-2.4-2.4-2.4c0,0,0,0,0,0c-1.3,0-2.4,1.1-2.4,2.4
	c0,0,0,0,0,0C15.6,28.7,16.7,29.8,18,29.8C18,29.8,18,29.8,18,29.8z"/>
<polygon class="st1" points="16.6,23 16.6,29 20.4,29 20.4,23 16.6,23 "/>
<polygon class="st1" points="15.6,27.8 15.6,29.8 18.5,29.8 18.5,27.8 15.6,27.8 "/>
</svg>
